<?xml version="1.0" encoding="UTF-8"?>
<!DOCTYPE svg PUBLIC "-//W3C//DTD SVG 1.1//EN" "http://www.w3.org/Graphics/SVG/1.1/DTD/svg11.dtd">
<!-- Creator: CorelDRAW 2021 (64-Bit) -->
<svg xmlns="http://www.w3.org/2000/svg" xml:space="preserve" width="139.234mm" height="27.9397mm" version="1.1" shape-rendering="geometricPrecision" text-rendering="geometricPrecision" image-rendering="optimizeQuality" fill-rule="evenodd" clip-rule="evenodd"
viewBox="0 0 13922.36 2793.76"
 xmlns:xlink="http://www.w3.org/1999/xlink"
 xmlns:xodm="http://www.corel.com/coreldraw/odm/2003">
 <g id="Layer_x0020_1">
  <metadata id="CorelCorpID_0Corel-Layer"/>
  <g id="_2127155771904">
   <path fill="#0C2340" fill-rule="nonzero" d="M1558.29 2211.52l25.96 0 42.81 -94.26 198.64 0 42.79 94.26 27.42 0 -156.79 -339.06 -24.04 0 -156.79 339.06zm79.35 -116.87l88.97 -194.79 88.49 194.79 -177.47 0zm425.63 116.87l25 0 0 -139.47 110.14 0 107.25 139.47 31.75 0 -111.1 -143.81c56.75,-7.68 98.6,-39.91 98.6,-96.18l0 -0.95c0,-24.05 -9.63,-46.65 -25.5,-62.53 -20.19,-20.21 -53.38,-33.19 -94.75,-33.19l-141.39 0 0 336.65zm25 -162.08l0 -151.49 114.95 0c61.09,0 96.66,28.37 96.66,73.57l0 0.96c0,48.59 -41.83,76.95 -98.09,76.95l-113.52 0zm507.4 162.08l25 0 0 -313.57 117.35 0 0 -23.09 -259.7 0 0 23.09 117.35 0 0 313.57zm410.71 2.4l20.21 0 98.58 -292.41 98.6 292.41 20.21 0 122.14 -339.05 -25.96 0 -105.81 299.62 -98.6 -300.57 -19.22 0 -98.6 300.57 -105.81 -299.62 -27.9 0 122.16 339.05zm667.07 3.38c101.97,0 169.79,-82.25 169.79,-174.11l0 -0.95c0,-91.87 -66.85,-173.15 -168.81,-173.15 -101.98,0 -169.79,82.22 -169.79,174.1l0 0.96c0,91.85 66.84,173.15 168.81,173.15zm0.98 -22.61c-83.21,0 -143.81,-68.28 -143.81,-151.5l0 -0.95c0,-83.21 59.65,-150.54 142.83,-150.54 83.2,0 143.8,68.28 143.8,151.49l0 0.96c0,83.2 -59.62,150.54 -142.82,150.54zm350.1 16.83l25.01 0 0 -139.47 110.14 0 107.24 139.47 31.75 0 -111.1 -143.81c56.76,-7.68 98.6,-39.91 98.6,-96.18l0 -0.95c0,-24.05 -9.62,-46.65 -25.5,-62.53 -20.19,-20.21 -53.38,-33.19 -94.74,-33.19l-141.4 0 0 336.65zm25.01 -162.08l0 -151.49 114.95 0c61.09,0 96.66,28.37 96.66,73.57l0 0.96c0,48.59 -41.83,76.95 -98.1,76.95l-113.51 0zm418.9 162.08l25 0 0 -85.59 83.68 -84.64 138.52 170.24 32.71 0 -153.41 -188.06 147.16 -148.6 -34.15 0 -214.51 221.22 0 -221.22 -25 0 0 336.65zm621.85 0l31.75 0 0 -40.87 -31.75 0 0 40.87zm523.75 4.82c64.94,0 111.58,-37.53 111.58,-91.87l0 -0.96c0,-49.07 -32.71,-76.93 -110.62,-92.81 -79.82,-16.35 -98.1,-38 -98.1,-73.57l0 -0.98c0,-35.11 32.71,-63.48 82.25,-63.48 37.02,0 68.76,10.58 100.51,38l15.86 -19.73c-34.15,-27.42 -66.35,-40.88 -115.41,-40.88 -62.53,0 -108.23,38.48 -108.23,88.49l0 0.96c0,50.98 32.71,78.39 113.52,94.75 76.45,15.39 95.22,36.06 95.22,71.66l0 0.95c0,38.49 -34.62,66.85 -85.12,66.85 -49.54,0 -83.68,-15.87 -120.72,-50.02l-16.36 18.75c40.4,36.08 81.77,53.88 135.62,53.88zm293.39 -4.82l25 0 0 -336.65 -25 0 0 336.65zm378.99 5.78c54.81,0 101.95,-23.57 132.24,-50.51l0 -129.85 -136.57 0 0 23.09 112.53 0 0 96.66c-24.52,20.69 -64.46,38.48 -107.24,38.48 -89.93,0 -144.29,-64.94 -144.29,-151.98l0 -0.95c0,-81.29 57.23,-150.54 139,-150.54 50.98,0 81.74,17.31 108.2,40.39l16.35 -18.75c-33.67,-27.89 -68.28,-44.25 -123.12,-44.25 -100.51,0 -166.41,83.2 -166.41,174.1l0 0.96c0,94.75 63.02,173.15 169.31,173.15zm318.84 -5.78l24.05 0 0 -299.13 237.11 299.13 18.75 0 0 -336.65 -24.04 0 0 292.89 -232.3 -292.89 -23.57 0 0 336.65zm447.29 0l25.95 0 42.82 -94.26 198.63 0 42.8 94.26 27.41 0 -156.78 -339.06 -24.05 0 -156.78 339.06zm79.34 -116.87l88.98 -194.79 88.49 194.79 -177.48 0zm560.78 122.65c54.81,0 101.95,-23.57 132.24,-50.51l0 -129.85 -136.58 0 0 23.09 112.54 0 0 96.66c-24.52,20.69 -64.46,38.48 -107.24,38.48 -89.94,0 -144.29,-64.94 -144.29,-151.98l0 -0.95c0,-81.29 57.23,-150.54 138.99,-150.54 50.98,0 81.75,17.31 108.21,40.39l16.35 -18.75c-33.67,-27.89 -68.28,-44.25 -123.12,-44.25 -100.51,0 -166.41,83.2 -166.41,174.1l0 0.96c0,94.75 63.02,173.15 169.31,173.15zm318.84 -5.78l241.91 0 0 -23.08 -216.91 0 0 -135.14 192.88 0 0 -23.09 -192.88 0 0 -132.26 214.51 0 0 -23.09 -239.51 0 0 336.65zm600.23 0l31.75 0 0 -40.87 -31.75 0 0 40.87zm409.78 0l222.68 0 0 -23.08 -197.68 0 0 -313.58 -25 0 0 336.65zm397.26 0l25 0 0 -336.65 -25 0 0 336.65zm378.98 5.78c54.82,0 101.96,-23.57 132.25,-50.51l0 -129.85 -136.58 0 0 23.09 112.54 0 0 96.66c-24.53,20.69 -64.47,38.48 -107.25,38.48 -89.93,0 -144.29,-64.94 -144.29,-151.98l0 -0.95c0,-81.29 57.23,-150.54 139,-150.54 50.98,0 81.74,17.31 108.2,40.39l16.36 -18.75c-33.67,-27.89 -68.29,-44.25 -123.12,-44.25 -100.52,0 -166.42,83.2 -166.42,174.1l0 0.96c0,94.75 63.03,173.15 169.31,173.15zm318.85 -5.78l25 0 0 -157.74 215.47 0 0 157.74 25 0 0 -336.65 -25 0 0 155.83 -215.47 0 0 -155.83 -25 0 0 336.65zm555 0l25 0 0 -313.57 117.35 0 0 -23.09 -259.7 0 0 23.09 117.35 0 0 313.57zm317.91 0l25 0 0 -336.65 -25 0 0 336.65zm224.6 0l24.04 0 0 -299.13 237.11 299.13 18.75 0 0 -336.65 -24.04 0 0 292.89 -232.3 -292.89 -23.56 0 0 336.65zm630.51 5.78c54.82,0 101.96,-23.57 132.25,-50.51l0 -129.85 -136.58 0 0 23.09 112.54 0 0 96.66c-24.52,20.69 -64.47,38.48 -107.25,38.48 -89.93,0 -144.29,-64.94 -144.29,-151.98l0 -0.95c0,-81.29 57.24,-150.54 139,-150.54 50.98,0 81.74,17.31 108.2,40.39l16.36 -18.75c-33.67,-27.89 -68.29,-44.25 -123.12,-44.25 -100.52,0 -166.42,83.2 -166.42,174.1l0 0.96c0,94.75 63.03,173.15 169.31,173.15z"/>
   <g>
    <path fill="#0C2340" fill-rule="nonzero" d="M12555.03 1209.25l0.11 0 0 185.19 -175.9 0 0 -162.38 -0.11 0 0 -1216.92 594.69 0c145.4,0 288.12,33.42 393.7,138.99 76.21,76.21 107.98,172.97 107.98,279.37 0,104.16 -29.74,197.24 -104.11,271.61 -70.54,70.54 -159.49,110.29 -255.54,131.25l280.31 372.89 0.13 0 139.21 185.19 -216.54 0 -121.18 -162.38 -0.11 0 -272.19 -364.7 -370.45 0 0 341.89zm0 -1029.84l0 527.54 405.24 0c86.76,0 175.38,-18.38 244.85,-73.12 63.55,-50.07 92.54,-117.93 92.54,-198.38 0,-76.32 -26.89,-140.45 -86.67,-188.66 -70.21,-52.68 -162.9,-67.37 -248.79,-67.37l-407.17 0z"/>
    <path fill="#0C2340" fill-rule="nonzero" d="M9567.19 898.99c115.42,-88.79 173.14,-213.09 173.14,-375.13 0,-153.17 -53.28,-275.25 -157.6,-364.03 -104.33,-88.79 -246.39,-133.19 -423.97,-133.19l-581.57 0 0 1367.8 175.36 0 0 -362.26 377.35 0c175.36,0 319.64,-44.4 437.29,-133.18zm-814.64 -26.64l0 -683.68 392.89 0c128.74,0 230.85,28.86 306.32,86.57 73.25,59.94 110.99,142.06 110.99,250.83 0,104.32 -37.74,188.68 -115.43,250.82 -77.68,64.38 -182.02,95.45 -310.76,95.45l-384.01 0z"/>
    <polygon fill="#0C2340" fill-rule="nonzero" points="1858.21,1394.43 1682.85,1394.43 1682.85,26.64 1858.21,26.64 "/>
    <polygon fill="#0C2340" fill-rule="nonzero" points="3849.26,1394.43 3562.95,1394.43 2706.1,306.33 2706.1,1394.43 2535.19,1394.43 2535.19,26.64 2699.44,26.64 3678.34,1271.9 3678.34,26.64 3849.26,26.64 "/>
    <path fill="#0C2340" fill-rule="nonzero" d="M5604.81 1394.43l-354.62 0c104.48,-27.13 194.29,-77.4 268.27,-151.39 117.65,-115.43 175.37,-261.93 175.37,-439.51 0,-175.36 -59.94,-321.86 -177.58,-439.51 -117.65,-117.64 -273.03,-175.36 -466.14,-175.36l-364.03 0 0 1205.76 -175.36 0 0 -1367.8 539.39 0c241.95,0 441.73,73.25 594.88,219.75 153.16,148.72 230.85,332.95 230.85,557.15 0,221.97 -77.69,406.21 -230.85,554.93 -13.09,12.53 -26.49,24.51 -40.18,35.97z"/>
    <path fill="#0C2340" fill-rule="nonzero" d="M7735.88 1394.43l-291.31 0c69.31,-31.02 131.76,-76.29 187.07,-135.85 113.2,-122.09 170.92,-275.25 170.92,-455.05 0,-179.8 -57.72,-330.73 -173.14,-455.04 -117.65,-124.31 -264.15,-186.46 -439.51,-186.46 -175.36,0 -321.86,62.15 -435.07,184.24 -115.42,124.3 -173.14,277.46 -173.14,457.26 0,179.8 57.72,330.73 175.36,455.05 55.31,59.56 117.75,104.83 187.07,135.85l-300.25 0c-7.5,-7.35 -14.91,-14.91 -22.22,-22.65 -148.72,-157.6 -221.97,-346.27 -221.97,-568.25 0,-219.75 75.47,-410.65 224.19,-568.25 148.72,-157.6 339.61,-235.29 570.47,-235.29 230.85,0 419.53,77.69 568.25,235.29 148.72,157.6 221.97,346.27 221.97,568.25 0,219.75 -75.47,408.43 -224.19,566.03 -8.04,8.52 -16.21,16.8 -24.5,24.87z"/>
    <path fill="#0C2340" fill-rule="nonzero" d="M11549.31 1394.43l-291.31 0c69.31,-31.02 131.76,-76.29 187.07,-135.85 113.2,-122.09 170.92,-275.25 170.92,-455.05 0,-179.8 -57.72,-330.73 -173.14,-455.04 -117.65,-124.31 -264.15,-186.46 -439.51,-186.46 -175.36,0 -321.86,62.15 -435.07,184.24 -115.42,124.3 -173.14,277.46 -173.14,457.26 0,179.8 57.72,330.73 175.36,455.05 55.31,59.56 117.75,104.83 187.07,135.85l-300.25 0c-7.5,-7.35 -14.91,-14.91 -22.22,-22.65 -148.72,-157.6 -221.97,-346.27 -221.97,-568.25 0,-219.75 75.47,-410.65 224.19,-568.25 148.72,-157.6 339.61,-235.29 570.47,-235.29 230.85,0 419.53,77.69 568.25,235.29 148.72,157.6 221.97,346.27 221.97,568.25 0,219.75 -75.47,408.43 -224.19,566.03 -8.04,8.52 -16.21,16.8 -24.5,24.87z"/>
    <path fill="#0C2340" fill-rule="nonzero" d="M13922.36 156.66c0,-39.1 -13.69,-72.32 -41.06,-100.08 -27.36,-27.76 -60.6,-41.44 -100.08,-41.44 -39.48,0 -72.71,13.68 -100.47,41.44 -27.75,27.76 -41.44,61.38 -41.44,100.08 0,39.1 13.69,72.32 41.05,100.08 27.37,27.76 60.6,41.44 100.08,41.44 39.49,0 72.71,-14.07 100.47,-41.83 27.76,-27.76 41.45,-60.99 41.45,-99.69zm-231.83 90.3c-24.24,-24.63 -36.36,-54.34 -36.36,-89.52 0,-35.58 12.12,-66.06 36.75,-91.09 24.24,-24.63 54.35,-37.14 90.3,-37.14 35.58,0 65.68,12.12 89.92,36.75 24.24,24.63 36.36,54.74 36.36,89.92 0,35.58 -12.12,66.06 -36.36,90.69 -24.63,25.03 -54.74,37.54 -90.7,37.54 -35.58,0 -65.68,-12.51 -89.91,-37.15zm61.38 -20.33l0 -51.21 30.11 0 36.75 51.21 33.62 0 -39.88 -55.91c10.56,-3.12 19.16,-8.6 25.42,-16.03 5.86,-7.42 8.99,-17.2 8.99,-28.54 0,-13.68 -3.91,-24.24 -12.12,-31.67 -10.56,-10.55 -25.81,-16.03 -44.96,-16.03l-66.07 0 0 148.17 28.15 0zm0 -122.75l36.75 0c9,0 16.42,1.95 21.51,5.86 5.08,4.3 7.82,9.78 7.82,17.21 0,7.42 -2.74,13.29 -7.82,17.59 -5.09,4.3 -12.51,6.25 -21.51,6.25l-36.75 0 0 -46.91z"/>
    <path fill="#0C2340" fill-rule="nonzero" d="M1034.94 1233.42c-99.9,123.58 -274.63,161.02 -425.99,161.02l-608.95 0 0 -1367.8 583.97 0c128.9,0 266.46,26.58 359.78,122.57 61.12,62.88 89.67,139.5 89.67,226.95 0,145.68 -69.02,246.91 -193.67,309.38 155.7,53.41 268.61,152.91 268.61,330.54 0,78.26 -20.61,151.21 -69.33,213.02l-3.39 4.31 -0.7 0zm-862.43 1.97l440.29 0c53.76,0 109.48,-6.34 160.5,-23.97l1.8 -0.62 0.18 0.32c24.83,-9.13 50.14,-21.94 73.01,-38.92 58.39,-41.45 83.73,-98.69 83.73,-169.57 0,-69.59 -27.3,-122.97 -85.28,-161.62 -72.38,-48.26 -176.21,-57.67 -260.85,-57.67l-413.38 0 0 452.04zm0 -1049.69l0 440.52 386.47 0c76.21,0 155.95,-14.05 218,-61.12 56.47,-42.83 80.09,-101.4 80.09,-171.64 0,-62.81 -22.67,-113.74 -72.39,-152.42 -59.3,-43.91 -142.2,-55.35 -214.16,-55.35l-398.01 0z"/>
   </g>
   <path fill="#0C2340" fill-rule="nonzero" d="M5723.68 2789.43l189.71 0 0 -39.83 -145.18 0 0 -68.05 127.07 0 0 -39.83 -127.07 0 0 -65.89 143.37 0 0 -39.83 -187.9 0 0 253.43zm403.67 3.63c53.24,0 90.52,-28.24 90.52,-75.68l0 -0.71c0,-42.01 -27.89,-61.2 -81.46,-74.21 -48.52,-11.59 -60.11,-20.28 -60.11,-39.83l0 -0.73c0,-16.65 15.22,-30.06 41.29,-30.06 23.17,0 45.98,9.05 68.78,26.07l23.89 -33.67c-25.71,-20.64 -55.02,-31.86 -91.94,-31.86 -50.35,0 -86.54,30.06 -86.54,73.48l0 0.73c0,46.72 30.41,62.64 84.35,75.68 47.08,10.85 57.21,20.62 57.21,38.73l0 0.73c0,19.18 -17.39,31.86 -44.89,31.86 -31.51,0 -55.75,-11.95 -80.01,-32.96l-26.78 31.87c30.4,27.14 66.96,40.56 105.69,40.56zm272.29 -3.63l44.89 0 0 -212.16 80.37 0 0 -41.27 -205.63 0 0 41.27 80.37 0 0 212.16zm200.55 0l48.15 0 0 -49.61 -48.15 0 0 49.61zm245.83 0l44.18 0 0 -255.23 -31.13 0 -68.06 21.72 9.4 36.2 45.62 -12.66 0 209.97zm259.61 4.33c68.05,0 108.61,-56.47 108.61,-137.92l0 -0.73c0,-49.96 -11.95,-77.84 -30.77,-96.66 -17.75,-17.75 -38.39,-26.8 -70.25,-26.8 -56.11,0 -94.47,38.02 -94.47,87.62l0 0.71c0,48.88 35.84,80.38 89.77,80.38 27.15,0 46.72,-11.59 59.38,-26.78 -1.44,46.69 -23.88,79.64 -61.18,79.64 -21.74,0 -38.75,-7.62 -57.94,-23.91l-24.27 34.04c21.38,17.74 45.99,30.4 81.11,30.4zm9.42 -130.69c-31.5,0 -51.78,-18.82 -51.78,-45.26l0 -0.73c0,-26.04 18.82,-47.05 50.32,-47.05 32.23,0 52.87,20.28 52.87,46.71l0 0.71c0,24.63 -19.2,45.62 -51.41,45.62zm306.3 129.99c55.4,0 96.66,-28.24 96.66,-73.49l0 -0.73c0,-30.06 -18.11,-48.15 -45.62,-60.83 21.37,-11.23 36.93,-28.24 36.93,-56.48l0 -0.73c0,-39.1 -37.3,-68.42 -87.97,-68.42 -50.69,0 -87.97,29.7 -87.97,68.42l0 0.73c0,28.24 15.56,45.25 36.93,56.48 -28.61,11.95 -45.62,31.13 -45.62,61.9l0 0.73c0,43.46 41.26,72.42 96.66,72.42zm0 -149.9c-26.07,0 -45.26,-15.56 -45.26,-37.64l0 -0.73c0,-19.18 18.11,-35.13 45.26,-35.13 27.14,0 45.25,15.95 45.25,35.49l0 0.71c0,21.74 -19.18,37.3 -45.25,37.3zm0 112.6c-33.3,0 -53.22,-17.38 -53.22,-38.02l0 -0.73c0,-23.16 23.18,-38.37 53.22,-38.37 30.04,0 53.21,15.21 53.21,38.37l0 0.73c0,21.01 -19.91,38.02 -53.21,38.02zm296.51 38c56.14,0 93.77,-34.03 93.77,-85.78l0 -0.73c0,-53.58 -38.74,-79.64 -87.97,-79.64 -17.02,0 -28.24,2.9 -40.2,7.23l4 -59.37 112.94 0 0 -39.47 -151.31 0 -7.25 124.17 26.8 17.75c13.02,-6.16 28.6,-11.22 46.69,-11.22 30.77,0 52.51,16.28 52.51,41.99l0 0.73c0,26.44 -19.91,43.82 -50.32,43.82 -23.54,0 -44.91,-11.59 -65.19,-30.43l-27.51 32.23c23.9,23.18 54.31,38.73 93.03,38.73z"/>
  </g>
 </g>
</svg>
